<svg width="352" height="245" viewBox="0 0 352 245" fill="none" xmlns="http://www.w3.org/2000/svg">
<path d="M58.8479 18.9838L65.0079 26.1238V107.604L42.1879 126.924L23.0079 109.144V26.6838L28.8879 18.9838H58.8479ZM38.8279 34.1038V97.1038L48.2079 105.364V34.1038H38.8279ZM86.149 79.3238L95.529 87.3038V71.7638H112.609V89.2638L89.509 106.204L70.049 90.6638V18.9838H86.149V79.3238ZM158.133 89.2638L135.033 106.204L115.573 90.6638V71.9038H131.673V79.3238L141.053 87.3038V65.0438H115.573V18.9838H131.673V45.5838H141.053V18.9838H158.133V89.2638ZM202.12 18.9838H219.2V89.2638L202.12 101.724V61.5438L190.92 89.6838L178.32 61.8238V101.724L161.24 89.2638V18.9838H178.32L189.52 44.4638L202.12 18.9838ZM240.661 34.8038V53.9838L250.041 46.9838V34.8038H240.661ZM259.561 18.9838L266.141 25.1438V57.0638L240.661 75.5438V103.544L223.581 90.6638V25.4238L229.181 18.9838H259.561ZM269.248 18.9838H286.328V89.2638L269.248 101.724V18.9838ZM269.248 15.3438V0.783752H286.328V15.3438H269.248ZM314.686 44.8838V35.6438H305.306V79.3238L314.686 87.3038V71.7638H331.766V89.2638L308.666 106.204L289.206 90.6638V25.7038L295.226 18.9838H325.466L331.766 25.2838V44.8838H314.686ZM3.12184 236.124V135.044L0.461841 130.984H17.6818V166.684L27.9018 129.024L38.4018 158.004V130.984H53.6618L52.5418 134.344V203.224L53.8018 204.344L35.6018 218.344L27.6218 193.984L17.6818 219.324V227.444L19.6418 230.384L1.30184 244.384L3.12184 236.124ZM87.1175 171.584V147.644H77.7375V171.584H87.1175ZM77.7375 188.244V215.544L61.6375 202.664V137.704L67.6575 130.984H97.8975L104.197 137.284V202.664L87.1175 215.544V188.244H77.7375ZM144.405 130.984L149.725 137.564V162.204L138.805 168.224L149.725 174.384V202.664L132.645 213.724V182.504L123.265 176.624V214.284L107.165 202.664V136.584L111.505 130.984H144.405ZM123.265 146.804V160.384L132.645 154.784V146.804H123.265ZM189.932 130.984L195.252 137.564V162.204L184.332 168.224L195.252 174.384V202.664L178.172 213.724V182.504L168.792 176.624V214.284L152.692 202.664V136.584L157.032 130.984H189.932ZM168.792 146.804V160.384L178.172 154.784V146.804H168.792ZM198.359 130.984H215.439V201.264L198.359 213.724V130.984ZM198.359 127.344V112.784H215.439V127.344H198.359ZM254.577 130.984L260.877 137.284V201.264L237.777 218.204L218.317 202.664V137.704L224.337 130.984H254.577ZM234.417 147.644V191.324L243.797 199.304V147.644H234.417ZM301.084 130.984L306.404 137.564V162.204L295.484 168.224L306.404 174.384V202.664L289.324 213.724V182.504L279.944 176.624V214.284L263.844 202.664V136.584L268.184 130.984H301.084ZM279.944 146.804V160.384L289.324 154.784V146.804H279.944ZM309.372 202.664V188.384H325.472V191.184L334.852 199.164V182.504L309.372 167.944V136.584L313.712 130.984H346.612L351.932 137.564V151.844H334.852V146.804H325.472V160.384L351.932 174.384V202.664L328.972 218.204L309.372 202.664Z" fill="#F9F3C1"/>
</svg>
