<svg width="2000" height="2000" viewBox="0 0 2000 2000" fill="none" xmlns="http://www.w3.org/2000/svg">
<path d="M1709 1239.06V221L517.526 465.333V1144.58C479.229 1126.66 435.825 1116.89 389.868 1116.89C310.869 1116.89 235.105 1146.92 179.244 1200.38C123.382 1253.84 92 1326.34 92 1401.94C92 1477.55 123.382 1550.05 179.244 1603.51C235.105 1656.97 310.869 1687 389.868 1687C468.868 1687 544.632 1656.97 600.493 1603.51C656.354 1550.05 687.737 1477.55 687.737 1401.94V677.089L1538.79 503.612V981.691C1520.89 973.316 1501.87 966.72 1482 962.07C1477 1085.5 1406 1159.5 1355.5 1202.5C1294.5 1252.5 1238.54 1286.26 1217 1320.5C1191.52 1361 1214 1398.5 1193 1435.5C1248.86 1488.96 1332.13 1524.11 1411.13 1524.11C1490.13 1524.11 1565.9 1494.08 1621.76 1440.62C1677.62 1387.16 1709 1314.66 1709 1239.06Z" fill="white"/>
<path d="M756.026 947.713C755.857 951.721 756.508 955.721 757.941 959.468C759.375 963.214 761.559 966.628 764.36 969.5C767.161 972.371 770.52 974.639 774.23 976.164C777.94 977.689 781.923 978.439 785.934 978.367H888.313C905.438 978.367 919.089 964.343 921.322 947.34C932.491 865.925 988.334 806.601 1087.86 806.601C1172.99 806.601 1250.92 849.17 1250.92 951.56C1250.92 1030.37 1204.51 1066.61 1131.17 1121.71C1047.65 1182.4 981.509 1253.27 986.225 1368.32L986.597 1395.25C986.727 1403.39 990.053 1411.16 995.857 1416.87C1001.66 1422.58 1009.48 1425.78 1017.62 1425.78H1118.26C1126.49 1425.78 1134.38 1422.51 1140.2 1416.69C1146.02 1410.87 1149.29 1402.98 1149.29 1394.75V1381.72C1149.29 1292.61 1183.17 1266.67 1274.62 1197.3C1350.2 1139.83 1429 1076.04 1429 942.128C1429 754.599 1270.65 664 1097.29 664C940.061 664 767.816 737.224 756.026 947.713ZM949.244 1662.95C949.244 1729.1 1001.99 1778 1074.58 1778C1150.16 1778 1202.15 1729.1 1202.15 1662.95C1202.15 1594.44 1150.03 1546.29 1074.46 1546.29C1001.99 1546.29 949.244 1594.44 949.244 1662.95Z" fill="white"/>
</svg>
