<svg width="2000" height="2000" viewBox="0 0 2000 2000" fill="none" xmlns="http://www.w3.org/2000/svg">
<path d="M925.48 1290.03V1900C925.48 1926.53 914.947 1951.96 896.197 1970.71C877.447 1989.46 852.016 2000 825.5 2000C798.984 2000 773.553 1989.46 754.803 1970.71C736.053 1951.96 725.52 1926.53 725.52 1900V1290.03C612.963 1313.16 495.874 1296.81 393.963 1243.72C292.051 1190.62 211.538 1104.04 165.976 998.532C120.414 893.027 112.585 775.044 143.806 664.441C175.028 553.839 243.393 457.371 337.396 391.275C362.155 280.27 424 181.02 512.732 109.89C601.464 38.7607 711.784 0 825.5 0C939.216 0 1049.54 38.7607 1138.27 109.89C1227 181.02 1288.85 280.27 1313.6 391.275C1407.61 457.371 1475.97 553.839 1507.19 664.441C1538.41 775.044 1530.59 893.027 1485.02 998.532C1439.46 1104.04 1358.95 1190.62 1257.04 1243.72C1155.13 1296.81 1038.04 1313.16 925.48 1290.03Z" fill="white"/>
<path d="M949.4 1470.41C995.462 1475.73 1037.12 1442.71 1042.44 1396.65C1047.77 1350.59 1014.75 1308.93 968.684 1303.61C922.623 1298.28 880.966 1331.3 875.641 1377.36C870.316 1423.43 903.339 1465.08 949.4 1470.41Z" fill="white"/>
<path d="M953.135 1484.04L834.689 1470.34C813.758 1467.99 792.721 1474.21 776.173 1487.66C759.626 1501.11 748.912 1520.69 746.371 1542.12L730.658 1678.04C729.072 1691.75 738.124 1704.62 751.442 1706.66C754.742 1707.17 758.112 1706.99 761.35 1706.13C764.588 1705.28 767.628 1703.76 770.288 1701.68C772.949 1699.6 775.174 1696.99 776.833 1694.01C778.491 1691.03 779.548 1687.75 779.94 1684.35L794.515 1558.28C794.786 1555.67 796.01 1553.25 797.943 1551.51C799.876 1549.78 802.374 1548.85 804.938 1548.92C806.298 1548.98 807.63 1549.33 808.85 1549.94C810.07 1550.56 811.153 1551.42 812.03 1552.49C812.907 1553.55 813.561 1554.79 813.95 1556.12C814.34 1557.46 814.456 1558.86 814.293 1560.25L772.06 1925.55C771.168 1933.26 773.303 1941 777.995 1947.07C782.686 1953.14 789.55 1957.04 797.076 1957.91C804.603 1958.78 812.175 1956.55 818.127 1951.71C824.079 1946.88 827.924 1939.83 828.816 1932.11L849.665 1751.77C849.998 1748.5 851.526 1745.48 853.941 1743.3C856.356 1741.12 859.48 1739.96 862.687 1740.03C864.389 1740.11 866.055 1740.55 867.581 1741.32C869.108 1742.08 870.462 1743.17 871.559 1744.49C872.657 1745.82 873.475 1747.37 873.962 1749.04C874.449 1750.71 874.595 1752.46 874.391 1754.2L853.492 1934.97C852.6 1942.68 854.735 1950.42 859.427 1956.49C864.118 1962.55 870.982 1966.45 878.508 1967.32C886.035 1968.19 893.607 1965.96 899.559 1961.13C905.511 1956.29 909.356 1949.24 910.247 1941.53L952.444 1576.54C952.714 1573.92 953.939 1571.51 955.872 1569.77C957.804 1568.03 960.303 1567.11 962.866 1567.17C964.227 1567.24 965.559 1567.59 966.779 1568.2C967.999 1568.82 969.081 1569.68 969.959 1570.74C970.836 1571.81 971.49 1573.04 971.879 1574.38C972.268 1575.71 972.385 1577.12 972.222 1578.5L957.677 1704.31C956.092 1718.02 965.144 1730.9 978.461 1732.93C981.764 1733.44 985.136 1733.26 988.376 1732.4C991.616 1731.55 994.657 1730.03 997.318 1727.94C999.979 1725.86 1002.2 1723.25 1003.86 1720.27C1005.52 1717.29 1006.57 1714 1006.96 1710.6L1022.75 1574.07C1025.16 1552.63 1019.2 1531.12 1006.16 1514.25C993.113 1497.38 974.052 1486.52 953.135 1484.04Z" fill="white"/>
<path d="M1837.92 1962.5L1726.67 1814.17M1504.17 1962.5L1578.33 1814.17L1689.58 1702.92L1652.5 1480.42" stroke="white" stroke-width="74" stroke-linecap="round" stroke-linejoin="round"/>
<path d="M1875 1628.75L1800.83 1517.5L1652.5 1480.42L1541.25 1591.67L1430 1628.75" stroke="white" stroke-width="74" stroke-linecap="round" stroke-linejoin="round"/>
<path d="M1704.97 1424.44C1755.77 1430.31 1801.71 1393.89 1807.58 1343.09C1813.46 1292.3 1777.04 1246.36 1726.24 1240.48C1675.44 1234.61 1629.5 1271.03 1623.63 1321.83C1617.76 1372.62 1654.18 1418.56 1704.97 1424.44Z" fill="white"/>
</svg>
