<svg width="2000" height="2000" viewBox="0 0 2000 2000" fill="none" xmlns="http://www.w3.org/2000/svg">
<g clip-path="url(#clip0_62_25)">
<path d="M74 1653.71L371.857 1713.29L416.536 1623.93M729.286 1892V1653.71L491 1475L550.571 1117.57M550.571 879.286C550.571 895.085 556.848 910.237 568.02 921.409C579.191 932.581 594.344 938.857 610.143 938.857C625.942 938.857 641.094 932.581 652.266 921.409C663.438 910.237 669.714 895.085 669.714 879.286C669.714 863.486 663.438 848.334 652.266 837.162C641.094 825.99 625.942 819.714 610.143 819.714C594.344 819.714 579.191 825.99 568.02 837.162C556.848 848.334 550.571 863.486 550.571 879.286Z" stroke="white" stroke-width="119" stroke-linecap="round" stroke-linejoin="round"/>
<path d="M252.715 1355.86V1177.14L550.572 1117.57L729.286 1296.29L908.001 1355.86" stroke="white" stroke-width="119" stroke-linecap="round" stroke-linejoin="round"/>
<path d="M1492.17 645.402L1127.84 423.5C1111.67 414.357 1088.81 436.512 1097.6 453.04L1313.87 824.4L1685.23 1040.67C1689.43 1042.2 1693.97 1042.48 1698.32 1041.48C1702.66 1040.49 1706.63 1038.26 1709.75 1035.07C1712.87 1031.88 1715 1027.86 1715.89 1023.49C1716.78 1019.12 1716.39 1014.59 1714.77 1010.43L1492.17 645.402ZM1351.5 786.068L1457 680.568L1617.01 942.208L1351.5 786.068Z" fill="white"/>
<path d="M1393 177.333C1281.72 177.333 1172.93 210.333 1080.4 272.16C987.87 333.986 915.752 421.863 873.165 524.677C830.578 627.491 819.435 740.624 841.146 849.771C862.856 958.918 916.445 1059.18 995.135 1137.87C1073.83 1216.56 1174.08 1270.14 1283.23 1291.86C1392.38 1313.57 1505.51 1302.42 1608.32 1259.84C1711.14 1217.25 1799.01 1145.13 1860.84 1052.6C1922.67 960.071 1955.67 851.285 1955.67 740C1955.67 590.772 1896.39 447.655 1790.87 342.135C1685.35 236.614 1542.23 177.333 1393 177.333ZM1428.17 1230.58V1145.47H1357.83V1230.58C1239.89 1222.02 1128.96 1171.29 1045.34 1087.67C961.714 1004.04 910.985 893.116 902.426 775.167H987.529V704.833H902.426C910.985 586.884 961.714 475.957 1045.34 392.335C1128.96 308.713 1239.89 257.984 1357.83 249.425V334.528H1428.17V249.425C1546.12 257.984 1657.04 308.713 1740.67 392.335C1824.29 475.957 1875.02 586.884 1883.58 704.833H1798.47V775.167H1883.58C1875.02 893.116 1824.29 1004.04 1740.67 1087.67C1657.04 1171.29 1546.12 1222.02 1428.17 1230.58Z" fill="white"/>
</g>
<defs>
<clipPath id="clip0_62_25">
<rect width="2000" height="2000" fill="white"/>
</clipPath>
</defs>
</svg>
