<svg width="2000" height="2000" viewBox="0 0 2000 2000" fill="none" xmlns="http://www.w3.org/2000/svg">
<path d="M1451.98 268C1252.14 268 1123.33 396.1 1061.73 556.269C1002.77 709.542 1000.42 892.879 1043.75 1038.19L1085.6 990.737C1055.83 862.519 1061.73 704.236 1111.24 575.134C1167.54 428.759 1274.24 321.056 1451.98 321.056C1629.42 321.056 1736.42 428.759 1792.72 575.134C1842.23 704.236 1848.13 862.519 1818.36 990.737L1860.21 1038.19C1903.54 892.879 1901.18 709.542 1842.23 556.269C1780.63 396.1 1651.82 268 1451.98 268ZM1379.18 819.19C1328.18 830.391 1286.92 849.255 1279.25 852.792L1059.37 1100.39L1083.83 1149.31L1337.03 946.819C1337.03 946.819 1337.03 1369.34 1337.03 1426.38C1337.03 1483.42 1425.45 1486.44 1425.45 1426.38C1425.45 1366.32 1425.45 1237.74 1425.45 1237.74H1478.51C1478.51 1237.74 1478.51 1575.1 1478.51 1635.66C1478.51 1696.21 1566.93 1697.34 1566.93 1635.66C1566.93 1573.97 1566.93 946.819 1566.93 946.819L1820.13 1149.31L1844.59 1100.39L1624.71 852.792C1617.04 849.255 1575.78 830.391 1524.78 819.19C1503.27 832.159 1478.51 839.823 1451.98 839.823C1425.45 839.823 1400.69 832.159 1379.18 819.19Z" fill="white"/>
<circle cx="1439.87" cy="657.17" r="108.658" fill="white"/>
<circle cx="218.658" cy="1427.66" r="108.658" fill="white"/>
<path d="M358.317 1421.94C365.131 1396.36 390.707 1380.52 416.645 1385.82L843 1473.01L1255.06 1609.11C1280.2 1617.42 1294.49 1643.94 1287.68 1669.52V1669.52C1280.31 1697.21 1251.2 1713.12 1223.94 1704.29L804.5 1568.5L396.462 1483.76C368.36 1477.92 350.93 1449.67 358.317 1421.94V1421.94Z" fill="white"/>
<rect x="465.424" y="1399.79" width="338.008" height="100" rx="50" transform="rotate(101.417 465.424 1399.79)" fill="white"/>
<path d="M842.334 876.333L634.001 918L602.751 855.5M384.001 1043V876.333L550.667 751.333L509.001 501.333M509.001 334.667C509.001 345.717 504.611 356.315 496.797 364.129C488.983 371.943 478.385 376.333 467.334 376.333C456.283 376.333 445.685 371.943 437.871 364.129C430.057 356.315 425.667 345.717 425.667 334.667C425.667 323.616 430.057 313.018 437.871 305.204C445.685 297.39 456.283 293 467.334 293C478.385 293 488.983 297.39 496.797 305.204C504.611 313.018 509.001 323.616 509.001 334.667Z" stroke="white" stroke-width="84" stroke-linecap="round" stroke-linejoin="round"/>
<path d="M717.334 668V543L509.001 501.333L384.001 626.333L259.001 668" stroke="white" stroke-width="84" stroke-linecap="round" stroke-linejoin="round"/>
</svg>
