<svg width="2000" height="2000" viewBox="0 0 2000 2000" fill="none" xmlns="http://www.w3.org/2000/svg">
<path d="M1439.34 864.08C1439.34 892.707 1444.98 921.054 1455.94 947.502C1466.89 973.95 1482.95 997.981 1503.19 1018.22C1523.43 1038.47 1547.46 1054.52 1573.91 1065.48C1600.36 1076.43 1628.71 1082.07 1657.33 1082.07C1685.96 1082.07 1714.31 1076.43 1740.76 1065.48C1767.21 1054.52 1791.24 1038.47 1811.48 1018.22C1831.72 997.981 1847.78 973.95 1858.73 947.502C1869.69 921.054 1875.33 892.707 1875.33 864.08C1875.33 835.453 1869.69 807.106 1858.73 780.658C1847.78 754.21 1831.72 730.179 1811.48 709.936C1791.24 689.694 1767.21 673.637 1740.76 662.682C1714.31 651.726 1685.96 646.088 1657.33 646.088C1628.71 646.088 1600.36 651.726 1573.91 662.682C1547.46 673.637 1523.43 689.694 1503.19 709.936C1482.95 730.179 1466.89 754.21 1455.94 780.658C1444.98 807.106 1439.34 835.453 1439.34 864.08Z" stroke="white" stroke-width="42" stroke-linecap="round" stroke-linejoin="round"/>
<path d="M1657.33 864.08C1676.31 897.692 1704.89 924.871 1739.42 942.132C1773.94 959.394 1812.83 965.952 1851.11 960.966M1548.34 900.412C1568.14 940.794 1597.03 976.031 1632.76 1003.35C1668.48 1030.67 1710.06 1049.33 1754.22 1057.85" stroke="white" stroke-width="42" stroke-linecap="round" stroke-linejoin="round"/>
<path d="M1657.33 864.08C1618.74 863.708 1580.91 874.87 1548.7 896.137C1516.49 917.403 1491.37 947.804 1476.55 983.443M1680.37 751.523C1635.5 748.474 1590.53 755.88 1549 773.158C1507.48 790.437 1470.53 817.116 1441.06 851.097" stroke="white" stroke-width="42" stroke-linecap="round" stroke-linejoin="round"/>
<path d="M1657.33 864.08C1676.95 830.841 1686.2 792.5 1683.89 753.972C1681.57 715.444 1667.81 678.485 1644.35 647.832M1743.3 940.305C1768.37 902.971 1784.44 860.328 1790.24 815.73C1796.04 771.133 1791.41 725.797 1776.72 683.292" stroke="white" stroke-width="42" stroke-linecap="round" stroke-linejoin="round"/>
<path d="M932.943 909.75L827.5 1247L932.943 1448.25M932.943 909.75L708.514 775.125L696 1168.5M932.943 909.75L1140.5 1041.5L1247.14 1582.88M932.943 1448.25H761.5M932.943 1448.25L1247.14 1582.88M761.5 1448.25L696 1168.5M761.5 1448.25H394.314L125 1897M761.5 1448.25L843.171 864.875L753.4 1134.12L761.5 1448.25ZM696 1168.5L663.629 461L1022.71 102M1696 1897L1247.14 1582.88M1112.49 685.375C1088.68 685.375 1065.84 675.919 1049.01 659.088C1032.17 642.256 1022.71 619.428 1022.71 595.625C1022.71 571.822 1032.17 548.994 1049.01 532.162C1065.84 515.331 1088.68 505.875 1112.49 505.875C1136.29 505.875 1159.13 515.331 1175.96 532.162C1192.8 548.994 1202.26 571.822 1202.26 595.625C1202.26 619.428 1192.8 642.256 1175.96 659.088C1159.13 675.919 1136.29 685.375 1112.49 685.375Z" stroke="white" stroke-width="181" stroke-linecap="round" stroke-linejoin="round"/>
</svg>
