<svg width="2000" height="1997" viewBox="0 0 2000 1997" fill="none" xmlns="http://www.w3.org/2000/svg">
<path d="M1046.45 0C1088.49 0 1127.95 7.91304 1164.83 23.7391C1201.72 39.5652 1234.04 61.1283 1261.8 88.4283C1289.56 115.728 1311.37 147.974 1327.24 185.165C1343.1 222.357 1351.03 261.922 1351.03 303.861C1351.03 387.739 1340.13 468.452 1318.31 546C1296.5 623.548 1265.77 696.15 1226.11 763.807C1186.45 831.463 1138.85 892.987 1083.33 948.378C1027.81 1003.77 966.137 1051.25 898.318 1090.81C830.5 1130.38 757.725 1161.04 679.992 1182.8C602.259 1204.56 521.353 1215.44 437.274 1215.44C395.235 1215.44 355.773 1207.53 318.89 1191.7C282.006 1175.88 249.684 1154.32 221.922 1127.02C194.16 1099.72 172.347 1067.47 156.483 1030.28C140.619 993.087 132.688 953.522 132.688 911.583C132.688 827.704 143.594 746.991 165.407 669.444C187.22 591.896 217.956 519.294 257.616 451.637C297.275 383.98 344.867 322.457 400.391 267.065C455.914 211.674 517.585 164.196 585.403 124.63C653.221 85.0652 725.997 54.4022 803.73 32.6413C881.463 10.8804 962.369 0 1046.45 0ZM1046.45 75.9652C969.508 75.9652 895.542 85.8565 824.551 105.639C753.56 125.422 686.932 153.513 624.666 189.913C562.401 226.313 505.687 270.033 454.526 321.072C403.365 372.111 359.739 428.491 323.649 490.213C287.559 551.935 259.4 618.404 239.174 689.622C218.947 760.839 208.834 834.826 208.834 911.583C208.834 935.322 212.404 958.467 219.542 981.02C226.681 1003.57 237.191 1024.34 251.072 1043.33L1178.51 118.102C1159.48 104.254 1138.66 93.7696 1116.05 86.6478C1093.44 79.5261 1070.24 75.9652 1046.45 75.9652ZM437.274 1139.48C514.214 1139.48 588.179 1129.59 659.17 1109.8C730.161 1090.02 796.79 1061.93 859.055 1025.53C921.321 989.131 978.034 945.411 1029.2 894.372C1080.36 843.333 1123.98 786.952 1160.07 725.231C1196.16 663.509 1224.32 597.039 1244.55 525.822C1264.77 454.604 1274.89 380.617 1274.89 303.861C1274.89 280.122 1271.32 256.976 1264.18 234.424C1257.04 211.872 1246.53 191.1 1232.65 172.109L305.207 1097.34C324.244 1111.19 345.065 1121.67 367.671 1128.8C390.277 1135.92 413.478 1139.48 437.274 1139.48Z" fill="white"/>
<path d="M1726.06 1284.9C1404.56 1050.67 1686.74 901.821 1313.85 698.994C1313.85 698.994 1309.46 713.259 1300.66 728.072C1282.54 758.588 1272.03 773.212 1272.03 773.212C1272.03 773.212 1291.73 782.62 1316.54 798.912C1385.88 844.437 1386.07 912.21 1375.4 1011.87C1520.54 1228.43 1403.46 1315.66 1497.84 1533.79C1497.84 1533.79 1524.3 1473.87 1565.62 1442.94C1581.01 1431.42 1635.05 1357.52 1863.01 1453.92C1863.01 1453.92 1823.45 1355.86 1726.06 1284.9Z" fill="white"/>
<path d="M1532.79 1676.86C1289.84 1323.39 1585 1204.77 1204.44 890.618C1204.44 890.618 1193.54 907.962 1169.98 938.951C1144.99 971.812 1125.72 988.071 1125.72 988.071C1125.72 988.071 1148.69 1007.24 1173.4 1031.34C1270.05 1125.63 1202.22 1239.68 1146.72 1439.18C1102.32 1598.78 1175.01 1819.83 1216.91 1910.41C1216.91 1910.41 1290.22 1986.47 1385.72 1947.63C1430.25 1929.53 1532.79 1856.01 1684.21 1922.4C1684.21 1922.4 1727.15 1959.63 1532.79 1676.86Z" fill="white"/>
</svg>
